<svg width="409" height="537" viewBox="0 0 409 537" fill="none" xmlns="http://www.w3.org/2000/svg">
<path d="M80 332.037V338.34C80 380.221 101.652 406.803 120.661 417.731V259C100.229 268.708 81.3723 272.215 80 332.037Z" fill="#9F9F9F" fill-opacity="0.06"/>
<path d="M167.473 443.765C175.046 447.679 183.229 451.694 192.022 456.014V297.588L210.523 316.089C215.562 321.174 218.393 328.041 218.401 335.2V455.658C227.194 451.338 235.377 447.272 243.001 443.358C247.808 440.872 251.836 437.109 254.643 432.482C257.449 427.855 258.926 422.544 258.91 417.132V326.712C258.916 320.545 257.702 314.437 255.338 308.741C252.974 303.045 249.507 297.873 245.136 293.522L201.374 249.71L245.136 205.898C249.502 201.544 252.967 196.371 255.33 190.676C257.694 184.98 258.91 178.874 258.91 172.708V15.7054L218.249 0.457458V164.372C218.241 171.531 215.41 178.398 210.37 183.483L191.87 201.984V0L151.209 15.2479V417.335C151.194 422.817 152.708 428.195 155.581 432.864C158.455 437.532 162.573 441.308 167.473 443.765V443.765Z" fill="#9F9F9F" fill-opacity="0.06"/>
<path d="M409 102.516C409.015 93.8128 406.377 85.3121 401.437 78.1472C396.497 70.9823 389.49 65.4938 381.35 62.4137L351.16 50.9269V178.704L325.035 209.912L325.441 84.4723V41.1682L284.78 25.9203V417.283C312.989 393.903 324.679 362.798 324.679 295.3V273.597L350.855 242.136V295.3C350.855 419.876 309.228 440.308 226.228 480.969C219.113 484.476 211.794 488.034 204.271 491.795C196.749 488.034 189.43 484.476 182.314 480.969C99.3148 440.308 57.688 419.977 57.688 295.3V94.231L84.0669 84.0657V158.933C85.4392 218.756 104.397 222.263 124.728 231.97V25.4629L27.6496 62.4137C19.51 65.4938 12.5029 70.9823 7.56287 78.1472C2.62281 85.3121 -0.0154064 93.8128 6.76829e-05 102.516V116.035L17.3318 109.428V294.894C17.3318 444.679 79.1367 474.971 164.728 516.903C174.538 521.986 184.703 526.713 195.224 532.151L204.424 536.878L213.623 532.151C224.195 526.763 234.36 521.986 244.119 516.903C329.609 474.971 391.516 444.679 391.516 294.894V109.631L408.847 116.239L409 102.516Z" fill="#9F9F9F" fill-opacity="0.06"/>
</svg>
