<svg width="50" height="50" viewBox="0 0 50 50" fill="none" xmlns="http://www.w3.org/2000/svg">
<rect x="0.5" y="0.5" width="49" height="49" stroke="#E4B564"/>
<path d="M20.371 18.043L18.7967 19.6172C17.9335 20.4805 17.746 21.8242 18.3631 22.8789C19.0506 24.0586 19.6131 24.9297 21.9686 27.2812C24.3202 29.6367 24.9608 29.957 26.121 30.6367C27.1796 31.2539 28.5194 31.0664 29.3788 30.2031L30.9569 28.6289L27.91 25.5859L26.6717 26.8242C26.5233 26.7578 26.3006 26.6406 26.0428 26.4766C25.5116 26.1367 24.8319 25.6172 24.2342 25.0156C23.6327 24.418 23.0467 23.6719 22.6405 23.0703C22.4413 22.7734 22.2811 22.5039 22.1952 22.3281C22.1913 22.3203 22.1913 22.3203 22.1874 22.3125L23.4139 21.0859L20.371 18.043ZM20.371 19.457L21.9999 21.0859L21.285 21.8047C21.1366 21.9531 21.121 22.1172 21.1249 22.2109C21.1249 22.3008 21.1405 22.3633 21.1561 22.4219C21.1913 22.543 21.2381 22.6484 21.2967 22.7734C21.4178 23.0156 21.5936 23.3047 21.8124 23.6328C22.2499 24.2812 22.8671 25.0664 23.5233 25.7266C24.1835 26.3828 24.91 26.9375 25.5077 27.3164C25.8046 27.5078 26.0663 27.6523 26.2889 27.75C26.4022 27.8008 26.5038 27.8398 26.6249 27.8633C26.6835 27.875 26.7499 27.8828 26.8397 27.875C26.9296 27.8711 27.0702 27.8398 27.1952 27.7148L27.91 27L29.5428 28.6289L28.6717 29.5C28.1288 30.043 27.2889 30.1602 26.6249 29.7734C25.4452 29.082 24.996 28.8984 22.6717 26.5781C20.3514 24.2539 19.9061 23.5391 19.2264 22.375C18.8397 21.7109 18.9569 20.8711 19.4999 20.3281L20.371 19.457Z" fill="#E4B564"/>
</svg>
